<svg xmlns:dc="http://purl.org/dc/elements/1.1/" xmlns:cc="http://creativecommons.org/ns#" xmlns:rdf="http://www.w3.org/1999/02/22-rdf-syntax-ns#" xmlns:svg="http://www.w3.org/2000/svg" xmlns="http://www.w3.org/2000/svg" xmlns:sodipodi="http://sodipodi.sourceforge.net/DTD/sodipodi-0.dtd" xmlns:inkscape="http://www.inkscape.org/namespaces/inkscape" width="888.93933" height="307.20023" viewBox="0 0 5425.6551 1875.0014" version="1.1" xml:space="preserve" style="clip-rule:evenodd;fill-rule:evenodd;stroke-linejoin:round;stroke-miterlimit:1.41420996" id="svg2" inkscape:version="0.91 r13725" sodipodi:docname="Facebook_Live.svg"><metadata id="metadata22"><rdf:RDF><cc:Work rdf:about=""><dc:format>image/svg+xml</dc:format><dc:type rdf:resource="http://purl.org/dc/dcmitype/StillImage"/><dc:title/></cc:Work></rdf:RDF></metadata><defs id="defs20"/><sodipodi:namedview pagecolor="#ffffff" bordercolor="#666666" borderopacity="1" objecttolerance="10" gridtolerance="10" guidetolerance="10" inkscape:pageopacity="0" inkscape:pageshadow="2" inkscape:window-width="1366" inkscape:window-height="705" id="namedview18" showgrid="false" fit-margin-top="0" fit-margin-left="0" fit-margin-right="0" fit-margin-bottom="0" inkscape:zoom="0.32" inkscape:cx="461.14536" inkscape:cy="350.1058" inkscape:window-x="-8" inkscape:window-y="-8" inkscape:window-maximized="1" inkscape:current-layer="g4"/><g transform="matrix(3.125,0,0,3.125,-412.175,-2187.5)" id="g4"><g transform="matrix(4.16667,0,0,4.16667,131.896,700)" id="g8"><path d="m 7.95,0 128.1,0 c 4.391,0 7.95,3.56 7.95,7.95 l 0,128.1 c 0,4.391 -3.559,7.95 -7.95,7.95 L 7.95,144 C 3.559,144 0,140.441 0,136.05 L 0,7.95 C 0,3.56 3.559,0 7.95,0 Z" style="fill:#3d5b99;fill-rule:nonzero" id="path10" inkscape:connector-curvature="0"/><path d="m 99.36,144 0,-55.76 18.72,0 2.77,-21.74 -21.49,0 0,-13.87 c 0,-6.29 1.75,-10.58 10.77,-10.58 l 11.51,0 0,-19.44 c -5.57,-0.591 -11.169,-0.878 -16.77,-0.86 -16.59,0 -28,10.13 -28,28.73 l 0,16 -18.72,0 0,21.73 18.77,0 0,55.79 22.44,0 z" style="fill:#ffffff;fill-rule:nonzero" id="path12" inkscape:connector-curvature="0"/><path d="m 167.04,0 241.7,0 c 4.391,0 7.95,3.56 7.95,7.95 l 0,128.1 c 0,4.391 -3.559,7.95 -7.95,7.95 l -241.7,0 c -4.391,0 -7.95,-3.559 -7.95,-7.95 l 0,-128.1 c 0,-4.39 3.559,-7.95 7.95,-7.95 z" style="fill:#ee4142;fill-rule:nonzero" id="path14" inkscape:connector-curvature="0"/><path d="m 238.29,92.94 -28,0 0,-51.43 -10.9,0 0,61 38.88,0 0,-9.55 0.02,-0.02 z m 22.65,9.55 0,-61 -10.9,0 0,61 10.9,0 z m 44.37,0 21.09,-61 -11.63,0 -15.21,48.26 -0.71,0 -15.34,-48.26 -12,0 21.3,61 12.55,0 -0.05,0 z m 71.08,-9.42 -28.54,0 0,-17.07 27,0 0,-8.87 -27,0 0,-16.2 28.57,0 0,-9.42 -39.5,0 0,61 39.47,0 0,-9.42 0,-0.02 z" style="fill:#ffffff;fill-rule:nonzero" id="path16" inkscape:connector-curvature="0"/></g></g></svg>